<svg width="96" height="96" xmlns="http://www.w3.org/2000/svg" xmlns:xlink="http://www.w3.org/1999/xlink" xml:space="preserve" overflow="hidden"><g transform="translate(-314 -17)"><path d="M362 27C341 27 324 44 324 65 324 86 341 103 362 103 383 103 400 86 400 65 400 44 383 27 362 27ZM362 93C359.2 93 357 90.8 357 88 357 85.2 359.2 83 362 83 364.8 83 367 85.2 367 88 367 90.8 364.8 93 362 93ZM365 69.8C365 72.4 365 79 365 79L359 79 359 64 362 64C368.7 64 373 60.1 373 54 373 47.7 368.3 43 362 43 355.1 43 351 47.1 351 54L345 54C345 43.8 351.8 37 362 37 371.5 37 379 44.5 379 54 379 62.5 373.4 68.6 365 69.8Z" fill="#650020"/></g></svg>